<svg width="176" height="21" viewBox="0 0 176 21" fill="none" xmlns="http://www.w3.org/2000/svg">
<path fill-rule="evenodd" clip-rule="evenodd" d="M2.33344 12.289C2.33344 12.5582 2.10943 12.7767 1.83349 12.7767C1.55754 12.7767 1.33354 12.5582 1.33354 12.289V7.46598C1.33354 5.91679 2.62561 4.6564 4.21441 4.6564H7.37838C8.97042 4.6564 10.2657 5.91995 10.2657 7.47295V8.06261C10.2657 8.33115 10.0417 8.54966 9.76579 8.54966C9.48985 8.54966 9.26585 8.33115 9.26585 8.06261V7.47295C9.26585 6.45704 8.41918 5.63177 7.37838 5.63177H4.21441C3.17686 5.63177 2.33344 6.45514 2.33344 7.46598V12.289ZM9.26565 13.9175C9.26565 13.6483 9.48965 13.4298 9.7656 13.4298C10.0415 13.4298 10.2655 13.6483 10.2655 13.9175V14.5135C10.2655 16.0627 8.97347 17.3231 7.38467 17.3231H4.22006C2.62867 17.3231 1.33334 16.0595 1.33334 14.5065C1.33334 14.2373 1.55735 14.0195 1.83329 14.0195C2.10924 14.0195 2.33324 14.2373 2.33324 14.5065C2.33324 15.5224 3.17991 16.3477 4.22006 16.3477H7.38467C8.42223 16.3477 9.26565 15.525 9.26565 14.5135V13.9175ZM14.6289 10.8037C14.5516 10.6206 14.3692 10.5015 14.1666 10.5015H6.36608C6.09013 10.5015 5.86548 10.7207 5.86548 10.9899C5.86548 11.259 6.09013 11.4775 6.36608 11.4775H12.9563L11.9168 12.4871C11.7207 12.6771 11.7207 12.9856 11.9155 13.1769C12.0129 13.2725 12.1415 13.3206 12.2694 13.3206C12.3973 13.3206 12.5245 13.2725 12.6226 13.1781L14.5198 11.3357C14.6626 11.1963 14.7061 10.9861 14.6289 10.8037ZM12.7479 10.0969C12.6206 10.0969 12.4934 10.0494 12.396 9.95565L11.9175 9.49393C11.7214 9.30456 11.7201 8.99548 11.9142 8.80484C12.109 8.6123 12.4245 8.61103 12.6213 8.80104L13.0992 9.26212C13.2959 9.45213 13.2972 9.76058 13.1031 9.95185C13.005 10.0481 12.8765 10.0969 12.7479 10.0969Z" fill="#091E42"/>
<path d="M29.1449 15.9897V6.5352H30.2898V14.9741H34.6847V15.9897H29.1449ZM39.1903 16.1375C38.5502 16.1375 37.9885 15.9851 37.5053 15.6804C37.0252 15.3758 36.6497 14.9495 36.3789 14.4017C36.1112 13.8539 35.9773 13.2137 35.9773 12.4812C35.9773 11.7426 36.1112 11.0978 36.3789 10.5469C36.6497 9.99602 37.0252 9.56823 37.5053 9.26354C37.9885 8.95885 38.5502 8.80651 39.1903 8.80651C39.8305 8.80651 40.3906 8.95885 40.8707 9.26354C41.3539 9.56823 41.7294 9.99602 41.9972 10.5469C42.268 11.0978 42.4034 11.7426 42.4034 12.4812C42.4034 13.2137 42.268 13.8539 41.9972 14.4017C41.7294 14.9495 41.3539 15.3758 40.8707 15.6804C40.3906 15.9851 39.8305 16.1375 39.1903 16.1375ZM39.1903 15.1588C39.6766 15.1588 40.0767 15.0341 40.3906 14.7848C40.7045 14.5356 40.9369 14.2078 41.0877 13.8015C41.2385 13.3953 41.3139 12.9552 41.3139 12.4812C41.3139 12.0073 41.2385 11.5656 41.0877 11.1563C40.9369 10.747 40.7045 10.4161 40.3906 10.1638C40.0767 9.91138 39.6766 9.7852 39.1903 9.7852C38.7041 9.7852 38.304 9.91138 37.9901 10.1638C37.6761 10.4161 37.4438 10.747 37.293 11.1563C37.1422 11.5656 37.0668 12.0073 37.0668 12.4812C37.0668 12.9552 37.1422 13.3953 37.293 13.8015C37.4438 14.2078 37.6761 14.5356 37.9901 14.7848C38.304 15.0341 38.7041 15.1588 39.1903 15.1588ZM46.9287 18.7966C46.4024 18.7966 45.95 18.7289 45.5715 18.5934C45.1929 18.4611 44.8775 18.2857 44.6251 18.0672C44.3758 17.8517 44.1773 17.6209 44.0296 17.3747L44.8975 16.7653C44.9959 16.8946 45.1206 17.0423 45.2714 17.2085C45.4222 17.3778 45.6284 17.524 45.89 17.6471C46.1547 17.7732 46.5009 17.8363 46.9287 17.8363C47.5012 17.8363 47.9736 17.6978 48.346 17.4209C48.7184 17.1439 48.9046 16.7099 48.9046 16.119V14.6787H48.8122C48.7322 14.8079 48.6183 14.968 48.4706 15.1588C48.326 15.3465 48.1167 15.5142 47.8428 15.662C47.5719 15.8066 47.2057 15.879 46.7441 15.879C46.1716 15.879 45.6576 15.7435 45.2021 15.4727C44.7497 15.2019 44.3912 14.8079 44.1265 14.2909C43.8649 13.7738 43.7341 13.146 43.7341 12.4074C43.7341 11.681 43.8618 11.0486 44.1173 10.51C44.3727 9.96832 44.7282 9.54976 45.1837 9.25431C45.6392 8.95577 46.1655 8.80651 46.7625 8.80651C47.2242 8.80651 47.5904 8.88345 47.8612 9.03733C48.1352 9.18814 48.3444 9.36048 48.4891 9.55438C48.6368 9.74519 48.7507 9.90215 48.8307 10.0253H48.9415V8.89884H49.9941V16.1929C49.9941 16.8022 49.8556 17.2977 49.5786 17.6794C49.3047 18.0641 48.9353 18.3457 48.4706 18.5242C48.009 18.7058 47.495 18.7966 46.9287 18.7966ZM46.8918 14.9003C47.3288 14.9003 47.6981 14.8002 47.9997 14.6002C48.3013 14.4001 48.5306 14.1124 48.6876 13.7369C48.8445 13.3614 48.923 12.9121 48.923 12.3889C48.923 11.878 48.8461 11.4271 48.6922 11.0363C48.5383 10.6454 48.3106 10.3392 48.009 10.1176C47.7074 9.896 47.335 9.7852 46.8918 9.7852C46.4301 9.7852 46.0454 9.90215 45.7377 10.1361C45.433 10.37 45.2037 10.6839 45.0498 11.0778C44.899 11.4718 44.8236 11.9088 44.8236 12.3889C44.8236 12.8813 44.9005 13.3168 45.0544 13.6954C45.2114 14.0708 45.4422 14.3663 45.7469 14.5817C46.0547 14.7941 46.4363 14.9003 46.8918 14.9003ZM58.5253 16.1375C57.8852 16.1375 57.3235 15.9851 56.8403 15.6804C56.3602 15.3758 55.9847 14.9495 55.7139 14.4017C55.4461 13.8539 55.3122 13.2137 55.3122 12.4812C55.3122 11.7426 55.4461 11.0978 55.7139 10.5469C55.9847 9.99602 56.3602 9.56823 56.8403 9.26354C57.3235 8.95885 57.8852 8.80651 58.5253 8.80651C59.1655 8.80651 59.7256 8.95885 60.2057 9.26354C60.6889 9.56823 61.0644 9.99602 61.3321 10.5469C61.603 11.0978 61.7384 11.7426 61.7384 12.4812C61.7384 13.2137 61.603 13.8539 61.3321 14.4017C61.0644 14.9495 60.6889 15.3758 60.2057 15.6804C59.7256 15.9851 59.1655 16.1375 58.5253 16.1375ZM58.5253 15.1588C59.0116 15.1588 59.4117 15.0341 59.7256 14.7848C60.0395 14.5356 60.2719 14.2078 60.4227 13.8015C60.5735 13.3953 60.6489 12.9552 60.6489 12.4812C60.6489 12.0073 60.5735 11.5656 60.4227 11.1563C60.2719 10.747 60.0395 10.4161 59.7256 10.1638C59.4117 9.91138 59.0116 9.7852 58.5253 9.7852C58.039 9.7852 57.6389 9.91138 57.325 10.1638C57.0111 10.4161 56.7787 10.747 56.6279 11.1563C56.4771 11.5656 56.4017 12.0073 56.4017 12.4812C56.4017 12.9552 56.4771 13.3953 56.6279 13.8015C56.7787 14.2078 57.0111 14.5356 57.325 14.7848C57.6389 15.0341 58.039 15.1588 58.5253 15.1588ZM67.8702 13.0906V8.89884H68.9597V15.9897H67.8702V14.7895H67.7963C67.6301 15.1495 67.3716 15.4558 67.0208 15.7081C66.6699 15.9574 66.2267 16.0821 65.6912 16.0821C65.248 16.0821 64.8541 15.9851 64.5094 15.7912C64.1647 15.5943 63.8939 15.2988 63.6969 14.9049C63.4999 14.5079 63.4015 14.0077 63.4015 13.4045V8.89884H64.4909V13.3307C64.4909 13.8477 64.6356 14.2601 64.9249 14.5679C65.2173 14.8756 65.5897 15.0295 66.0421 15.0295C66.3129 15.0295 66.5884 14.9603 66.8684 14.8218C67.1516 14.6833 67.3886 14.4709 67.5794 14.1847C67.7733 13.8985 67.8702 13.5338 67.8702 13.0906ZM74.039 8.89884V9.82213H70.3643V8.89884H74.039ZM71.4353 7.19997H72.5248V13.9585C72.5248 14.2663 72.5694 14.4971 72.6586 14.651C72.751 14.8018 72.8679 14.9033 73.0095 14.9557C73.1541 15.0049 73.3065 15.0295 73.4665 15.0295C73.5866 15.0295 73.685 15.0234 73.762 15.0111C73.8389 14.9957 73.9005 14.9834 73.9466 14.9741L74.1682 15.9528C74.0944 15.9805 73.9913 16.0082 73.8589 16.0359C73.7266 16.0667 73.5589 16.0821 73.3557 16.0821C73.048 16.0821 72.7464 16.0159 72.4509 15.8836C72.1585 15.7512 71.9154 15.5496 71.7215 15.2788C71.5307 15.008 71.4353 14.6664 71.4353 14.254V7.19997Z" fill="#091E42"/>
</svg>
