<svg width="184" height="37" viewBox="0 0 184 37" fill="none" xmlns="http://www.w3.org/2000/svg">
<rect y="0.989746" width="184" height="36" rx="18" fill="#9A4C1E"/>
<path d="M23.3333 25.6564H28.6667C31.3467 25.6564 31.8267 24.5831 31.9667 23.2764L32.4667 17.9431C32.6467 16.3164 32.18 14.9897 29.3333 14.9897H22.6667C19.82 14.9897 19.3533 16.3164 19.5333 17.9431L20.0333 23.2764C20.1733 24.5831 20.6533 25.6564 23.3333 25.6564Z" stroke="#FAFBFB" stroke-width="1.5" stroke-miterlimit="10" stroke-linecap="round" stroke-linejoin="round"/>
<path d="M23.3333 14.9898V14.4564C23.3333 13.2764 23.3333 12.3231 25.4667 12.3231H26.5333C28.6667 12.3231 28.6667 13.2764 28.6667 14.4564V14.9898" stroke="#FAFBFB" stroke-width="1.5" stroke-miterlimit="10" stroke-linecap="round" stroke-linejoin="round"/>
<path d="M27.3333 19.6564V20.3231C27.3333 20.3297 27.3333 20.3297 27.3333 20.3364C27.3333 21.0631 27.3267 21.6564 26 21.6564C24.68 21.6564 24.6667 21.0697 24.6667 20.3431V19.6564C24.6667 18.9897 24.6667 18.9897 25.3333 18.9897H26.6667C27.3333 18.9897 27.3333 18.9897 27.3333 19.6564Z" stroke="#FAFBFB" stroke-width="1.5" stroke-miterlimit="10" stroke-linecap="round" stroke-linejoin="round"/>
<path d="M32.4333 18.3231C30.8933 19.4431 29.1333 20.1098 27.3333 20.3364" stroke="#FAFBFB" stroke-width="1.5" stroke-miterlimit="10" stroke-linecap="round" stroke-linejoin="round"/>
<path d="M19.7467 18.5031C21.2467 19.5297 22.94 20.1497 24.6667 20.3431" stroke="#FAFBFB" stroke-width="1.5" stroke-miterlimit="10" stroke-linecap="round" stroke-linejoin="round"/>
<path d="M47.008 13.0777H50.844C51.348 13.0777 51.824 13.1291 52.272 13.2317C52.7293 13.3251 53.126 13.4884 53.462 13.7217C53.8073 13.9457 54.078 14.2537 54.274 14.6457C54.4793 15.0284 54.582 15.5091 54.582 16.0877C54.582 16.7877 54.4 17.3851 54.036 17.8797C53.672 18.3651 53.14 18.6731 52.44 18.8037L54.96 22.9897H52.342L50.27 19.0277H49.192V22.9897H47.008V13.0777ZM49.192 17.1797H50.48C50.676 17.1797 50.8813 17.1751 51.096 17.1657C51.32 17.1471 51.5207 17.1051 51.698 17.0397C51.8753 16.9651 52.02 16.8531 52.132 16.7037C52.2533 16.5544 52.314 16.3444 52.314 16.0737C52.314 15.8217 52.2627 15.6211 52.16 15.4717C52.0573 15.3224 51.9267 15.2104 51.768 15.1357C51.6093 15.0517 51.4273 14.9957 51.222 14.9677C51.0167 14.9397 50.816 14.9257 50.62 14.9257H49.192V17.1797ZM55.5681 19.5877C55.5681 19.0464 55.6661 18.5564 55.8621 18.1177C56.0581 17.6791 56.3241 17.3057 56.6601 16.9977C57.0055 16.6804 57.4068 16.4377 57.8641 16.2697C58.3308 16.1017 58.8255 16.0177 59.3481 16.0177C59.8708 16.0177 60.3608 16.1017 60.8181 16.2697C61.2848 16.4377 61.6861 16.6804 62.0221 16.9977C62.3675 17.3057 62.6381 17.6791 62.8341 18.1177C63.0301 18.5564 63.1281 19.0464 63.1281 19.5877C63.1281 20.1291 63.0301 20.6191 62.8341 21.0577C62.6381 21.4964 62.3675 21.8744 62.0221 22.1917C61.6861 22.4997 61.2848 22.7377 60.8181 22.9057C60.3608 23.0737 59.8708 23.1577 59.3481 23.1577C58.8255 23.1577 58.3308 23.0737 57.8641 22.9057C57.4068 22.7377 57.0055 22.4997 56.6601 22.1917C56.3241 21.8744 56.0581 21.4964 55.8621 21.0577C55.6661 20.6191 55.5681 20.1291 55.5681 19.5877ZM57.6681 19.5877C57.6681 20.1011 57.8128 20.5164 58.1021 20.8337C58.4008 21.1511 58.8161 21.3097 59.3481 21.3097C59.8801 21.3097 60.2908 21.1511 60.5801 20.8337C60.8788 20.5164 61.0281 20.1011 61.0281 19.5877C61.0281 19.0744 60.8788 18.6591 60.5801 18.3417C60.2908 18.0244 59.8801 17.8657 59.3481 17.8657C58.8161 17.8657 58.4008 18.0244 58.1021 18.3417C57.8128 18.6591 57.6681 19.0744 57.6681 19.5877ZM64.393 12.4057H66.493V22.9897H64.393V12.4057ZM74.4418 21.8137C74.1058 22.2431 73.6811 22.5744 73.1678 22.8077C72.6544 23.0411 72.1224 23.1577 71.5718 23.1577C71.0491 23.1577 70.5544 23.0737 70.0878 22.9057C69.6304 22.7377 69.2291 22.4997 68.8838 22.1917C68.5478 21.8744 68.2818 21.4964 68.0858 21.0577C67.8898 20.6191 67.7918 20.1291 67.7918 19.5877C67.7918 19.0464 67.8898 18.5564 68.0858 18.1177C68.2818 17.6791 68.5478 17.3057 68.8838 16.9977C69.2291 16.6804 69.6304 16.4377 70.0878 16.2697C70.5544 16.1017 71.0491 16.0177 71.5718 16.0177C72.0571 16.0177 72.4958 16.1017 72.8878 16.2697C73.2891 16.4377 73.6251 16.6804 73.8958 16.9977C74.1758 17.3057 74.3904 17.6791 74.5398 18.1177C74.6891 18.5564 74.7638 19.0464 74.7638 19.5877V20.2457H69.8918C69.9758 20.6471 70.1578 20.9691 70.4378 21.2117C70.7178 21.4451 71.0631 21.5617 71.4738 21.5617C71.8191 21.5617 72.1084 21.4871 72.3418 21.3377C72.5844 21.1791 72.7944 20.9784 72.9718 20.7357L74.4418 21.8137ZM72.6638 18.8177C72.6731 18.4631 72.5564 18.1597 72.3138 17.9077C72.0711 17.6557 71.7584 17.5297 71.3758 17.5297C71.1424 17.5297 70.9371 17.5671 70.7598 17.6417C70.5824 17.7164 70.4284 17.8144 70.2978 17.9357C70.1764 18.0477 70.0784 18.1831 70.0038 18.3417C69.9384 18.4911 69.9011 18.6497 69.8918 18.8177H72.6638ZM79.8908 18.1877C79.5828 17.8051 79.1768 17.6137 78.6728 17.6137C78.4955 17.6137 78.3228 17.6557 78.1548 17.7397C77.9868 17.8237 77.9028 17.9684 77.9028 18.1737C77.9028 18.3417 77.9868 18.4677 78.1548 18.5517C78.3322 18.6264 78.5515 18.6964 78.8128 18.7617C79.0835 18.8177 79.3682 18.8831 79.6668 18.9577C79.9748 19.0231 80.2595 19.1304 80.5208 19.2797C80.7915 19.4291 81.0108 19.6344 81.1788 19.8957C81.3562 20.1477 81.4448 20.4884 81.4448 20.9177C81.4448 21.3564 81.3468 21.7204 81.1508 22.0097C80.9642 22.2897 80.7215 22.5184 80.4228 22.6957C80.1242 22.8637 79.7882 22.9804 79.4148 23.0457C79.0415 23.1204 78.6728 23.1577 78.3088 23.1577C77.8328 23.1577 77.3522 23.0924 76.8668 22.9617C76.3815 22.8217 75.9708 22.5791 75.6348 22.2337L76.9088 20.8197C77.1048 21.0624 77.3195 21.2491 77.5528 21.3797C77.7955 21.5011 78.0755 21.5617 78.3928 21.5617C78.6355 21.5617 78.8548 21.5291 79.0508 21.4637C79.2468 21.3891 79.3448 21.2584 79.3448 21.0717C79.3448 20.8944 79.2562 20.7637 79.0788 20.6797C78.9108 20.5864 78.6915 20.5117 78.4208 20.4557C78.1595 20.3904 77.8748 20.3251 77.5668 20.2597C77.2682 20.1851 76.9835 20.0777 76.7128 19.9377C76.4515 19.7977 76.2322 19.6017 76.0548 19.3497C75.8868 19.0884 75.8028 18.7431 75.8028 18.3137C75.8028 17.9124 75.8822 17.5671 76.0408 17.2777C76.2088 16.9884 76.4235 16.7504 76.6848 16.5637C76.9555 16.3771 77.2635 16.2417 77.6088 16.1577C77.9542 16.0644 78.3042 16.0177 78.6588 16.0177C79.1068 16.0177 79.5595 16.0831 80.0168 16.2137C80.4742 16.3444 80.8615 16.5777 81.1788 16.9137L79.8908 18.1877Z" fill="#F7E8EF"/>
</svg>
